<svg width="245" height="50" viewBox="0 0 245 50" fill="none" xmlns="http://www.w3.org/2000/svg">
<mask id="mask0_77_684" style="mask-type:alpha" maskUnits="userSpaceOnUse" x="2" y="1" width="23" height="40">
<path d="M24.2172 17.4293C24.2165 16.0639 23.8638 14.7218 23.193 13.5327C22.5222 12.3435 21.556 11.3474 20.3878 10.6406L17.6953 9.01194L4.91305 1.27948C3.63084 0.505352 1.99402 1.4312 2.00002 2.92971L2.02119 8.24698C2.02343 8.81513 2.172 9.37312 2.45257 9.86716C2.73315 10.3612 3.13627 10.7746 3.62307 11.0676L13.9492 17.2814C14.3904 17.5464 14.7555 17.9211 15.009 18.369C15.2625 18.8169 15.3958 19.3227 15.3959 19.8374V21.1782C15.3958 21.6928 15.2625 22.1987 15.009 22.6465C14.7555 23.0944 14.3904 23.4691 13.9492 23.7341L3.62307 29.9473C3.13625 30.2402 2.73311 30.6536 2.45253 31.1476C2.17195 31.6417 2.02339 32.1997 2.02119 32.7678L2.00002 38.0851C1.99402 39.5836 3.63084 40.5109 4.91305 39.735L17.6953 32.0029L20.3878 30.3742C21.5561 29.6674 22.5222 28.6713 23.1931 27.482C23.8639 26.2928 24.2166 24.9506 24.2172 23.5852C24.2172 22.5592 24.2172 21.5332 24.2172 20.5074C24.2172 19.4816 24.2172 18.4555 24.2172 17.4293Z" fill="#F9ED32"/>
</mask>
<g mask="url(#mask0_77_684)">
<g style="mix-blend-mode:multiply">
<rect x="-7.03174" y="-8.53418" width="64.728" height="82.2898" fill="white"/>
<rect x="-7.03174" y="-8.53418" width="64.728" height="82.2898" fill="url(#paint0_linear_77_684)"/>
</g>
</g>
<mask id="mask1_77_684" style="mask-type:alpha" maskUnits="userSpaceOnUse" x="14" y="7" width="24" height="41">
<path d="M14.9014 24.4131C14.902 23.0477 15.2548 21.7056 15.9256 20.5165C16.5964 19.3273 17.5626 18.3312 18.7307 17.6244L21.4232 15.995L34.2055 8.26328C35.4877 7.48704 37.1245 8.415 37.1185 9.91351L37.0974 15.2308C37.0951 15.7989 36.9466 16.3569 36.666 16.851C36.3854 17.345 35.9823 17.7584 35.4955 18.0514L25.1693 24.2652C24.7282 24.5302 24.3631 24.9049 24.1096 25.3528C23.8561 25.8007 23.7228 26.3065 23.7227 26.8212V28.162C23.7228 28.6766 23.8561 29.1825 24.1096 29.6303C24.3631 30.0782 24.7282 30.4529 25.1693 30.7179L35.4955 36.9321C35.9823 37.225 36.3855 37.6385 36.666 38.1325C36.9466 38.6265 37.0952 39.1845 37.0974 39.7527L37.1185 45.07C37.1245 46.5685 35.4877 47.4957 34.2055 46.7199L21.4232 38.9867L18.7307 37.358C17.5625 36.6512 16.5963 35.6551 15.9255 34.4658C15.2547 33.2766 14.902 31.9344 14.9014 30.569C14.9014 29.543 14.9014 28.517 14.9014 27.4912C14.9014 26.4654 14.9014 25.4393 14.9014 24.4131Z" fill="white"/>
</mask>
<g mask="url(#mask1_77_684)">
<g style="mix-blend-mode:multiply">
<rect x="-23.5803" y="-18.449" width="64.728" height="82.2898" fill="white"/>
<rect x="-23.5803" y="-18.449" width="64.728" height="82.2898" fill="url(#paint1_linear_77_684)"/>
</g>
</g>
<g clip-path="url(#clip0_77_684)">
<mask id="path-5-outside-1_77_684" maskUnits="userSpaceOnUse" x="52.1187" y="15" width="194" height="26" fill="black">
<rect fill="white" x="52.1187" y="15" width="194" height="26"/>
<path d="M78.5842 24.0438C78.5811 26.1768 77.5295 28.2217 75.6601 29.7296C73.7908 31.2375 71.2564 32.0854 68.6133 32.087H53.7351V39.7381C53.7373 39.7718 53.7309 39.8056 53.7165 39.8373C53.702 39.869 53.6796 39.8979 53.6508 39.9224C53.622 39.9469 53.5873 39.9665 53.5488 39.9798C53.5104 39.9931 53.469 40 53.4271 40C53.3852 40 53.3438 39.9931 53.3053 39.9798C53.2669 39.9665 53.2322 39.9469 53.2034 39.9224C53.1746 39.8979 53.1522 39.869 53.1377 39.8373C53.1232 39.8056 53.1169 39.7718 53.1191 39.7381V16.2489C53.1191 16.1829 53.1516 16.1196 53.2094 16.0729C53.2673 16.0262 53.3457 16 53.4275 16H68.6133C71.2566 16.0016 73.791 16.8495 75.6604 18.3576C77.5298 19.8657 78.5813 21.9107 78.5842 24.0438ZM77.9682 24.0438C77.9655 22.0425 76.9789 20.1238 75.2251 18.7089C73.4712 17.294 71.0933 16.4986 68.6133 16.4971H53.7351V31.5898H68.6108C71.0904 31.5882 73.4678 30.7927 75.2214 29.378C76.9749 27.9633 77.9613 26.0448 77.964 24.0438H77.9682Z"/>
<path d="M108.078 16.2619V29.7262C108.078 35.3881 102.368 40 95.3483 40C88.3281 40 82.6182 35.3881 82.6182 29.7262V16.2619C82.6223 16.1983 82.6566 16.1383 82.7139 16.0944C82.7712 16.0505 82.8472 16.026 82.9262 16.026C83.0052 16.026 83.0812 16.0505 83.1386 16.0944C83.1959 16.1383 83.2301 16.1983 83.2342 16.2619V29.7262C83.2342 35.1168 88.6693 39.5029 95.3491 39.5029C102.029 39.5029 107.462 35.1168 107.462 29.7262V16.2619C107.46 16.2282 107.466 16.1945 107.481 16.1628C107.495 16.1311 107.518 16.1021 107.547 16.0776C107.575 16.0531 107.61 16.0336 107.649 16.0203C107.687 16.0069 107.728 16 107.77 16C107.812 16 107.854 16.0069 107.892 16.0203C107.931 16.0336 107.965 16.0531 107.994 16.0776C108.023 16.1021 108.045 16.1311 108.06 16.1628C108.074 16.1945 108.08 16.2282 108.078 16.2619Z"/>
<path d="M130.576 39.5967C130.625 39.6473 130.648 39.7113 130.64 39.7754C130.632 39.8395 130.594 39.8986 130.533 39.9404C130.473 39.9822 130.394 40.0034 130.315 39.9996C130.235 39.9957 130.161 39.9671 130.107 39.9198L112.729 23.4751V39.7562C112.725 39.82 112.691 39.88 112.633 39.9239C112.576 39.9678 112.5 39.9923 112.421 39.9923C112.342 39.9923 112.266 39.9678 112.209 39.9239C112.151 39.88 112.117 39.82 112.113 39.7562V22.8011C112.113 22.8011 112.113 22.795 112.113 22.7916C112.115 22.7739 112.119 22.7564 112.126 22.7393C112.129 22.7252 112.133 22.7113 112.14 22.6979C112.149 22.685 112.159 22.6728 112.17 22.6612C112.181 22.6462 112.195 22.6323 112.21 22.6198C112.21 22.6198 112.215 22.6137 112.218 22.6124C112.23 22.6061 112.243 22.6004 112.256 22.5954C112.273 22.5851 112.292 22.5765 112.312 22.5696C112.333 22.5645 112.354 22.5611 112.376 22.5594C112.39 22.5562 112.404 22.5539 112.418 22.5526C112.423 22.5526 112.426 22.5526 112.43 22.5526C112.452 22.5537 112.474 22.5571 112.494 22.5628C112.512 22.5653 112.53 22.5692 112.547 22.5744C112.562 22.5809 112.577 22.5889 112.591 22.5981C112.61 22.6074 112.627 22.6184 112.643 22.6307C112.643 22.6307 112.65 22.6348 112.652 22.6368L130.576 39.5967ZM137.5 39.5967C137.549 39.6473 137.572 39.7113 137.565 39.7754C137.557 39.8395 137.518 39.8986 137.458 39.9404C137.397 39.9822 137.319 40.0034 137.239 39.9996C137.16 39.9957 137.085 39.9671 137.031 39.9198L112.186 16.41C112.176 16.3988 112.168 16.3867 112.161 16.374C112.151 16.362 112.142 16.3493 112.135 16.336C112.126 16.316 112.121 16.2952 112.12 16.2742C112.12 16.2654 112.114 16.2579 112.114 16.2484C112.114 16.2389 112.114 16.2444 112.114 16.2416C112.115 16.2199 112.121 16.1984 112.13 16.1778C112.132 16.1675 112.136 16.1573 112.14 16.1473C112.15 16.1312 112.162 16.1162 112.177 16.1025C112.187 16.0903 112.198 16.0787 112.21 16.0679C112.21 16.0679 112.215 16.0618 112.218 16.0597C112.231 16.052 112.246 16.0454 112.261 16.04C112.277 16.0312 112.294 16.0234 112.312 16.017C112.334 16.0121 112.355 16.0087 112.378 16.0068C112.391 16.0039 112.405 16.0016 112.419 16H127.605C130.09 15.9993 132.485 16.7483 134.321 18.1001C136.156 19.4518 137.301 21.3088 137.529 23.3067C137.757 25.3046 137.052 27.2992 135.553 28.8992C134.054 30.4993 131.869 31.5893 129.427 31.9554L137.5 39.5967ZM128.962 31.5196C131.307 31.2502 133.437 30.272 134.923 28.7828C136.409 27.2936 137.14 25.4044 136.968 23.4968C136.796 21.5892 135.733 19.8056 133.995 18.5062C132.257 17.2069 129.974 16.4887 127.605 16.4968H113.087L128.962 31.5196Z"/>
<path d="M166.758 16H141.925C141.84 16.0002 141.759 16.0275 141.699 16.0759C141.639 16.1244 141.605 16.19 141.605 16.2585V25.8736C141.605 25.9101 141.615 25.9461 141.634 25.9792C141.653 26.0122 141.681 26.0414 141.716 26.0647C141.75 26.088 141.791 26.1049 141.835 26.1141C141.879 26.1233 141.924 26.1246 141.969 26.1179C142.041 26.1052 142.106 26.0724 142.152 26.0252C142.198 25.978 142.222 25.9194 142.221 25.8594V16.5069L142.222 16.5033L142.224 16.5002L142.228 16.4981L142.233 16.4974H166.74C166.815 16.4988 166.888 16.4793 166.946 16.4421C167.005 16.405 167.046 16.3526 167.061 16.2938C167.069 16.2579 167.068 16.2211 167.056 16.1858C167.045 16.1506 167.024 16.1178 166.995 16.0898C166.966 16.0618 166.93 16.0393 166.889 16.0237C166.848 16.0082 166.803 16.0001 166.758 16Z"/>
<path d="M166.741 39.5027H142.233C142.23 39.5027 142.227 39.5017 142.225 39.4999C142.222 39.4982 142.221 39.4957 142.221 39.4932V30.3851C142.221 30.3825 142.222 30.3801 142.225 30.3784C142.227 30.3766 142.23 30.3756 142.233 30.3756H159.091C159.176 30.3754 159.257 30.3481 159.317 30.2996C159.377 30.2511 159.411 30.1855 159.411 30.117C159.411 30.0857 159.403 30.0546 159.388 30.0256C159.373 29.9966 159.351 29.9703 159.324 29.9481C159.296 29.9259 159.264 29.9083 159.228 29.8963C159.192 29.8843 159.154 29.8782 159.115 29.8782H141.925C141.883 29.8781 141.842 29.8847 141.803 29.8976C141.764 29.9105 141.729 29.9295 141.699 29.9534C141.669 29.9774 141.646 30.0059 141.63 30.0372C141.613 30.0685 141.605 30.1021 141.605 30.136V39.7416C141.605 39.8102 141.639 39.8759 141.699 39.9244C141.759 39.9729 141.84 40.0001 141.925 40.0001H166.759C166.804 40 166.848 39.9919 166.889 39.9764C166.93 39.9609 166.966 39.9383 166.995 39.9103C167.024 39.8823 167.045 39.8495 167.056 39.8143C167.067 39.779 167.069 39.7422 167.061 39.7063C167.045 39.6476 167.005 39.5952 166.946 39.5581C166.888 39.5209 166.815 39.5014 166.741 39.5027Z"/>
<path d="M187.955 29.1198L175.431 25.508C174.489 25.2115 173.685 24.5879 173.164 23.75C172.642 22.912 172.437 21.9151 172.587 20.9396C172.737 19.964 173.23 19.0741 173.979 18.4309C174.728 17.7877 175.682 17.4337 176.669 17.4328H186.3C187.395 17.4341 188.446 17.8698 189.221 18.6445C189.995 19.4192 190.431 20.4696 190.432 21.5652C190.432 21.7553 190.508 21.9376 190.642 22.072C190.777 22.2065 190.959 22.282 191.149 22.282C191.339 22.282 191.521 22.2065 191.656 22.072C191.79 21.9376 191.866 21.7553 191.866 21.5652C191.864 20.0898 191.277 18.6753 190.234 17.632C189.191 16.5886 187.777 16.0017 186.301 16H176.67C175.338 15.9991 174.05 16.4759 173.04 17.3437C172.029 18.2115 171.364 19.4128 171.164 20.7296C170.964 22.0464 171.242 23.3912 171.949 24.52C172.656 25.6488 173.744 26.4867 175.016 26.8815L187.54 30.4933C188.482 30.7898 189.286 31.4134 189.808 32.2513C190.329 33.0893 190.534 34.0862 190.384 35.0618C190.235 36.0373 189.741 36.9272 188.992 37.5704C188.244 38.2136 187.289 38.5676 186.302 38.5685H176.67C175.575 38.5667 174.525 38.1305 173.75 37.3556C172.976 36.5806 172.541 35.5302 172.54 34.4348C172.54 34.2447 172.465 34.0624 172.33 33.928C172.196 33.7935 172.014 33.718 171.823 33.718C171.633 33.718 171.451 33.7935 171.317 33.928C171.182 34.0624 171.107 34.2447 171.107 34.4348C171.108 35.9102 171.695 37.3247 172.738 38.368C173.781 39.4114 175.196 39.9983 176.671 40H186.302C187.634 40.0009 188.922 39.5241 189.933 38.6563C190.943 37.7885 191.609 36.5872 191.809 35.2704C192.009 33.9536 191.73 32.6088 191.023 31.48C190.316 30.3512 189.228 29.5133 187.956 29.1185L187.955 29.1198Z"/>
<path d="M207.905 17.4325C209.819 17.4327 211.696 17.9523 213.338 18.9359C214.979 19.9194 216.323 21.3299 217.226 23.0171C218.129 24.7043 218.557 26.6049 218.464 28.5163C218.372 30.4276 217.763 32.2781 216.701 33.8703C216.613 34.002 216.57 34.159 216.579 34.3174C216.587 34.4758 216.648 34.6269 216.751 34.7478L216.761 34.7602C216.831 34.8424 216.92 34.9072 217.019 34.9496C217.119 34.9919 217.227 35.0107 217.334 35.0044C217.442 34.9981 217.547 34.9668 217.641 34.9132C217.735 34.8595 217.815 34.7848 217.875 34.695C219.424 32.3843 220.123 29.6078 219.853 26.8393C219.583 24.0707 218.36 21.4817 216.394 19.514C212.758 15.877 207.359 15.0641 202.934 17.0713C202.83 17.1189 202.74 17.1897 202.669 17.2782C202.598 17.3667 202.548 17.4705 202.524 17.5814C202.499 17.6923 202.501 17.8074 202.529 17.9175C202.557 18.0276 202.609 18.1298 202.683 18.216C202.779 18.3293 202.91 18.4081 203.055 18.4403C203.2 18.4725 203.351 18.4565 203.486 18.3947C204.873 17.7598 206.38 17.4316 207.905 17.4325Z"/>
<path d="M200.429 35.4752C196.718 31.7639 196.349 25.9573 199.321 21.8281C199.417 21.6948 199.466 21.5331 199.46 21.3688C199.453 21.2044 199.392 21.0469 199.286 20.9213C199.217 20.8399 199.131 20.7752 199.034 20.732C198.937 20.6888 198.831 20.6683 198.724 20.6719C198.618 20.6756 198.514 20.7033 198.42 20.753C198.326 20.8028 198.244 20.8733 198.181 20.9591C194.781 25.6529 195.192 32.2645 199.416 36.4889C201.197 38.2642 203.49 39.437 205.972 39.8425C208.453 40.248 211 39.8659 213.253 38.7497C213.348 38.7023 213.431 38.634 213.495 38.5499C213.56 38.4658 213.604 38.3682 213.625 38.2644C213.646 38.1605 213.644 38.0533 213.617 37.9507C213.591 37.8481 213.541 37.7528 213.473 37.6721C213.365 37.5452 213.218 37.458 213.055 37.4243C212.892 37.3907 212.722 37.4125 212.573 37.4863C208.624 39.4251 203.708 38.7549 200.429 35.4752Z"/>
<path d="M224.661 40H243.924C244.114 40 244.296 39.9245 244.43 39.7901C244.565 39.6557 244.64 39.4733 244.64 39.2833C244.64 39.0932 244.565 38.9109 244.43 38.7764C244.296 38.642 244.114 38.5665 243.924 38.5665H225.377V16.7167C225.377 16.5267 225.302 16.3443 225.167 16.2099C225.033 16.0755 224.851 16 224.661 16C224.47 16 224.288 16.0755 224.154 16.2099C224.019 16.3443 223.944 16.5267 223.944 16.7167V39.2839C223.944 39.378 223.963 39.4712 223.999 39.5581C224.035 39.6451 224.088 39.724 224.154 39.7905C224.221 39.857 224.3 39.9097 224.387 39.9457C224.474 39.9816 224.567 40.0001 224.661 40Z"/>
</mask>
<path d="M78.5842 24.0438C78.5811 26.1768 77.5295 28.2217 75.6601 29.7296C73.7908 31.2375 71.2564 32.0854 68.6133 32.087H53.7351V39.7381C53.7373 39.7718 53.7309 39.8056 53.7165 39.8373C53.702 39.869 53.6796 39.8979 53.6508 39.9224C53.622 39.9469 53.5873 39.9665 53.5488 39.9798C53.5104 39.9931 53.469 40 53.4271 40C53.3852 40 53.3438 39.9931 53.3053 39.9798C53.2669 39.9665 53.2322 39.9469 53.2034 39.9224C53.1746 39.8979 53.1522 39.869 53.1377 39.8373C53.1232 39.8056 53.1169 39.7718 53.1191 39.7381V16.2489C53.1191 16.1829 53.1516 16.1196 53.2094 16.0729C53.2673 16.0262 53.3457 16 53.4275 16H68.6133C71.2566 16.0016 73.791 16.8495 75.6604 18.3576C77.5298 19.8657 78.5813 21.9107 78.5842 24.0438ZM77.9682 24.0438C77.9655 22.0425 76.9789 20.1238 75.2251 18.7089C73.4712 17.294 71.0933 16.4986 68.6133 16.4971H53.7351V31.5898H68.6108C71.0904 31.5882 73.4678 30.7927 75.2214 29.378C76.9749 27.9633 77.9613 26.0448 77.964 24.0438H77.9682Z" fill="#201823"/>
<path d="M108.078 16.2619V29.7262C108.078 35.3881 102.368 40 95.3483 40C88.3281 40 82.6182 35.3881 82.6182 29.7262V16.2619C82.6223 16.1983 82.6566 16.1383 82.7139 16.0944C82.7712 16.0505 82.8472 16.026 82.9262 16.026C83.0052 16.026 83.0812 16.0505 83.1386 16.0944C83.1959 16.1383 83.2301 16.1983 83.2342 16.2619V29.7262C83.2342 35.1168 88.6693 39.5029 95.3491 39.5029C102.029 39.5029 107.462 35.1168 107.462 29.7262V16.2619C107.46 16.2282 107.466 16.1945 107.481 16.1628C107.495 16.1311 107.518 16.1021 107.547 16.0776C107.575 16.0531 107.61 16.0336 107.649 16.0203C107.687 16.0069 107.728 16 107.77 16C107.812 16 107.854 16.0069 107.892 16.0203C107.931 16.0336 107.965 16.0531 107.994 16.0776C108.023 16.1021 108.045 16.1311 108.06 16.1628C108.074 16.1945 108.08 16.2282 108.078 16.2619Z" fill="#201823"/>
<path d="M130.576 39.5967C130.625 39.6473 130.648 39.7113 130.64 39.7754C130.632 39.8395 130.594 39.8986 130.533 39.9404C130.473 39.9822 130.394 40.0034 130.315 39.9996C130.235 39.9957 130.161 39.9671 130.107 39.9198L112.729 23.4751V39.7562C112.725 39.82 112.691 39.88 112.633 39.9239C112.576 39.9678 112.5 39.9923 112.421 39.9923C112.342 39.9923 112.266 39.9678 112.209 39.9239C112.151 39.88 112.117 39.82 112.113 39.7562V22.8011C112.113 22.8011 112.113 22.795 112.113 22.7916C112.115 22.7739 112.119 22.7564 112.126 22.7393C112.129 22.7252 112.133 22.7113 112.14 22.6979C112.149 22.685 112.159 22.6728 112.17 22.6612C112.181 22.6462 112.195 22.6323 112.21 22.6198C112.21 22.6198 112.215 22.6137 112.218 22.6124C112.23 22.6061 112.243 22.6004 112.256 22.5954C112.273 22.5851 112.292 22.5765 112.312 22.5696C112.333 22.5645 112.354 22.5611 112.376 22.5594C112.39 22.5562 112.404 22.5539 112.418 22.5526C112.423 22.5526 112.426 22.5526 112.43 22.5526C112.452 22.5537 112.474 22.5571 112.494 22.5628C112.512 22.5653 112.53 22.5692 112.547 22.5744C112.562 22.5809 112.577 22.5889 112.591 22.5981C112.61 22.6074 112.627 22.6184 112.643 22.6307C112.643 22.6307 112.65 22.6348 112.652 22.6368L130.576 39.5967ZM137.5 39.5967C137.549 39.6473 137.572 39.7113 137.565 39.7754C137.557 39.8395 137.518 39.8986 137.458 39.9404C137.397 39.9822 137.319 40.0034 137.239 39.9996C137.16 39.9957 137.085 39.9671 137.031 39.9198L112.186 16.41C112.176 16.3988 112.168 16.3867 112.161 16.374C112.151 16.362 112.142 16.3493 112.135 16.336C112.126 16.316 112.121 16.2952 112.12 16.2742C112.12 16.2654 112.114 16.2579 112.114 16.2484C112.114 16.2389 112.114 16.2444 112.114 16.2416C112.115 16.2199 112.121 16.1984 112.13 16.1778C112.132 16.1675 112.136 16.1573 112.14 16.1473C112.15 16.1312 112.162 16.1162 112.177 16.1025C112.187 16.0903 112.198 16.0787 112.21 16.0679C112.21 16.0679 112.215 16.0618 112.218 16.0597C112.231 16.052 112.246 16.0454 112.261 16.04C112.277 16.0312 112.294 16.0234 112.312 16.017C112.334 16.0121 112.355 16.0087 112.378 16.0068C112.391 16.0039 112.405 16.0016 112.419 16H127.605C130.09 15.9993 132.485 16.7483 134.321 18.1001C136.156 19.4518 137.301 21.3088 137.529 23.3067C137.757 25.3046 137.052 27.2992 135.553 28.8992C134.054 30.4993 131.869 31.5893 129.427 31.9554L137.5 39.5967ZM128.962 31.5196C131.307 31.2502 133.437 30.272 134.923 28.7828C136.409 27.2936 137.14 25.4044 136.968 23.4968C136.796 21.5892 135.733 19.8056 133.995 18.5062C132.257 17.2069 129.974 16.4887 127.605 16.4968H113.087L128.962 31.5196Z" fill="#201823"/>
<path d="M166.758 16H141.925C141.84 16.0002 141.759 16.0275 141.699 16.0759C141.639 16.1244 141.605 16.19 141.605 16.2585V25.8736C141.605 25.9101 141.615 25.9461 141.634 25.9792C141.653 26.0122 141.681 26.0414 141.716 26.0647C141.75 26.088 141.791 26.1049 141.835 26.1141C141.879 26.1233 141.924 26.1246 141.969 26.1179C142.041 26.1052 142.106 26.0724 142.152 26.0252C142.198 25.978 142.222 25.9194 142.221 25.8594V16.5069L142.222 16.5033L142.224 16.5002L142.228 16.4981L142.233 16.4974H166.74C166.815 16.4988 166.888 16.4793 166.946 16.4421C167.005 16.405 167.046 16.3526 167.061 16.2938C167.069 16.2579 167.068 16.2211 167.056 16.1858C167.045 16.1506 167.024 16.1178 166.995 16.0898C166.966 16.0618 166.93 16.0393 166.889 16.0237C166.848 16.0082 166.803 16.0001 166.758 16Z" fill="#201823"/>
<path d="M166.741 39.5027H142.233C142.23 39.5027 142.227 39.5017 142.225 39.4999C142.222 39.4982 142.221 39.4957 142.221 39.4932V30.3851C142.221 30.3825 142.222 30.3801 142.225 30.3784C142.227 30.3766 142.23 30.3756 142.233 30.3756H159.091C159.176 30.3754 159.257 30.3481 159.317 30.2996C159.377 30.2511 159.411 30.1855 159.411 30.117C159.411 30.0857 159.403 30.0546 159.388 30.0256C159.373 29.9966 159.351 29.9703 159.324 29.9481C159.296 29.9259 159.264 29.9083 159.228 29.8963C159.192 29.8843 159.154 29.8782 159.115 29.8782H141.925C141.883 29.8781 141.842 29.8847 141.803 29.8976C141.764 29.9105 141.729 29.9295 141.699 29.9534C141.669 29.9774 141.646 30.0059 141.63 30.0372C141.613 30.0685 141.605 30.1021 141.605 30.136V39.7416C141.605 39.8102 141.639 39.8759 141.699 39.9244C141.759 39.9729 141.84 40.0001 141.925 40.0001H166.759C166.804 40 166.848 39.9919 166.889 39.9764C166.93 39.9609 166.966 39.9383 166.995 39.9103C167.024 39.8823 167.045 39.8495 167.056 39.8143C167.067 39.779 167.069 39.7422 167.061 39.7063C167.045 39.6476 167.005 39.5952 166.946 39.5581C166.888 39.5209 166.815 39.5014 166.741 39.5027Z" fill="#201823"/>
<path d="M187.955 29.1198L175.431 25.508C174.489 25.2115 173.685 24.5879 173.164 23.75C172.642 22.912 172.437 21.9151 172.587 20.9396C172.737 19.964 173.23 19.0741 173.979 18.4309C174.728 17.7877 175.682 17.4337 176.669 17.4328H186.3C187.395 17.4341 188.446 17.8698 189.221 18.6445C189.995 19.4192 190.431 20.4696 190.432 21.5652C190.432 21.7553 190.508 21.9376 190.642 22.072C190.777 22.2065 190.959 22.282 191.149 22.282C191.339 22.282 191.521 22.2065 191.656 22.072C191.79 21.9376 191.866 21.7553 191.866 21.5652C191.864 20.0898 191.277 18.6753 190.234 17.632C189.191 16.5886 187.777 16.0017 186.301 16H176.67C175.338 15.9991 174.05 16.4759 173.04 17.3437C172.029 18.2115 171.364 19.4128 171.164 20.7296C170.964 22.0464 171.242 23.3912 171.949 24.52C172.656 25.6488 173.744 26.4867 175.016 26.8815L187.54 30.4933C188.482 30.7898 189.286 31.4134 189.808 32.2513C190.329 33.0893 190.534 34.0862 190.384 35.0618C190.235 36.0373 189.741 36.9272 188.992 37.5704C188.244 38.2136 187.289 38.5676 186.302 38.5685H176.67C175.575 38.5667 174.525 38.1305 173.75 37.3556C172.976 36.5806 172.541 35.5302 172.54 34.4348C172.54 34.2447 172.465 34.0624 172.33 33.928C172.196 33.7935 172.014 33.718 171.823 33.718C171.633 33.718 171.451 33.7935 171.317 33.928C171.182 34.0624 171.107 34.2447 171.107 34.4348C171.108 35.9102 171.695 37.3247 172.738 38.368C173.781 39.4114 175.196 39.9983 176.671 40H186.302C187.634 40.0009 188.922 39.5241 189.933 38.6563C190.943 37.7885 191.609 36.5872 191.809 35.2704C192.009 33.9536 191.73 32.6088 191.023 31.48C190.316 30.3512 189.228 29.5133 187.956 29.1185L187.955 29.1198Z" fill="#201823"/>
<path d="M207.905 17.4325C209.819 17.4327 211.696 17.9523 213.338 18.9359C214.979 19.9194 216.323 21.3299 217.226 23.0171C218.129 24.7043 218.557 26.6049 218.464 28.5163C218.372 30.4276 217.763 32.2781 216.701 33.8703C216.613 34.002 216.57 34.159 216.579 34.3174C216.587 34.4758 216.648 34.6269 216.751 34.7478L216.761 34.7602C216.831 34.8424 216.92 34.9072 217.019 34.9496C217.119 34.9919 217.227 35.0107 217.334 35.0044C217.442 34.9981 217.547 34.9668 217.641 34.9132C217.735 34.8595 217.815 34.7848 217.875 34.695C219.424 32.3843 220.123 29.6078 219.853 26.8393C219.583 24.0707 218.36 21.4817 216.394 19.514C212.758 15.877 207.359 15.0641 202.934 17.0713C202.83 17.1189 202.74 17.1897 202.669 17.2782C202.598 17.3667 202.548 17.4705 202.524 17.5814C202.499 17.6923 202.501 17.8074 202.529 17.9175C202.557 18.0276 202.609 18.1298 202.683 18.216C202.779 18.3293 202.91 18.4081 203.055 18.4403C203.2 18.4725 203.351 18.4565 203.486 18.3947C204.873 17.7598 206.38 17.4316 207.905 17.4325Z" fill="#201823"/>
<path d="M200.429 35.4752C196.718 31.7639 196.349 25.9573 199.321 21.8281C199.417 21.6948 199.466 21.5331 199.46 21.3688C199.453 21.2044 199.392 21.0469 199.286 20.9213C199.217 20.8399 199.131 20.7752 199.034 20.732C198.937 20.6888 198.831 20.6683 198.724 20.6719C198.618 20.6756 198.514 20.7033 198.42 20.753C198.326 20.8028 198.244 20.8733 198.181 20.9591C194.781 25.6529 195.192 32.2645 199.416 36.4889C201.197 38.2642 203.49 39.437 205.972 39.8425C208.453 40.248 211 39.8659 213.253 38.7497C213.348 38.7023 213.431 38.634 213.495 38.5499C213.56 38.4658 213.604 38.3682 213.625 38.2644C213.646 38.1605 213.644 38.0533 213.617 37.9507C213.591 37.8481 213.541 37.7528 213.473 37.6721C213.365 37.5452 213.218 37.458 213.055 37.4243C212.892 37.3907 212.722 37.4125 212.573 37.4863C208.624 39.4251 203.708 38.7549 200.429 35.4752Z" fill="#201823"/>
<path d="M224.661 40H243.924C244.114 40 244.296 39.9245 244.43 39.7901C244.565 39.6557 244.64 39.4733 244.64 39.2833C244.64 39.0932 244.565 38.9109 244.43 38.7764C244.296 38.642 244.114 38.5665 243.924 38.5665H225.377V16.7167C225.377 16.5267 225.302 16.3443 225.167 16.2099C225.033 16.0755 224.851 16 224.661 16C224.47 16 224.288 16.0755 224.154 16.2099C224.019 16.3443 223.944 16.5267 223.944 16.7167V39.2839C223.944 39.378 223.963 39.4712 223.999 39.5581C224.035 39.6451 224.088 39.724 224.154 39.7905C224.221 39.857 224.3 39.9097 224.387 39.9457C224.474 39.9816 224.567 40.0001 224.661 40Z" fill="#201823"/>
<path d="M78.5842 24.0438C78.5811 26.1768 77.5295 28.2217 75.6601 29.7296C73.7908 31.2375 71.2564 32.0854 68.6133 32.087H53.7351V39.7381C53.7373 39.7718 53.7309 39.8056 53.7165 39.8373C53.702 39.869 53.6796 39.8979 53.6508 39.9224C53.622 39.9469 53.5873 39.9665 53.5488 39.9798C53.5104 39.9931 53.469 40 53.4271 40C53.3852 40 53.3438 39.9931 53.3053 39.9798C53.2669 39.9665 53.2322 39.9469 53.2034 39.9224C53.1746 39.8979 53.1522 39.869 53.1377 39.8373C53.1232 39.8056 53.1169 39.7718 53.1191 39.7381V16.2489C53.1191 16.1829 53.1516 16.1196 53.2094 16.0729C53.2673 16.0262 53.3457 16 53.4275 16H68.6133C71.2566 16.0016 73.791 16.8495 75.6604 18.3576C77.5298 19.8657 78.5813 21.9107 78.5842 24.0438ZM77.9682 24.0438C77.9655 22.0425 76.9789 20.1238 75.2251 18.7089C73.4712 17.294 71.0933 16.4986 68.6133 16.4971H53.7351V31.5898H68.6108C71.0904 31.5882 73.4678 30.7927 75.2214 29.378C76.9749 27.9633 77.9613 26.0448 77.964 24.0438H77.9682Z" stroke="#201823" stroke-width="1.03429" mask="url(#path-5-outside-1_77_684)"/>
<path d="M108.078 16.2619V29.7262C108.078 35.3881 102.368 40 95.3483 40C88.3281 40 82.6182 35.3881 82.6182 29.7262V16.2619C82.6223 16.1983 82.6566 16.1383 82.7139 16.0944C82.7712 16.0505 82.8472 16.026 82.9262 16.026C83.0052 16.026 83.0812 16.0505 83.1386 16.0944C83.1959 16.1383 83.2301 16.1983 83.2342 16.2619V29.7262C83.2342 35.1168 88.6693 39.5029 95.3491 39.5029C102.029 39.5029 107.462 35.1168 107.462 29.7262V16.2619C107.46 16.2282 107.466 16.1945 107.481 16.1628C107.495 16.1311 107.518 16.1021 107.547 16.0776C107.575 16.0531 107.61 16.0336 107.649 16.0203C107.687 16.0069 107.728 16 107.77 16C107.812 16 107.854 16.0069 107.892 16.0203C107.931 16.0336 107.965 16.0531 107.994 16.0776C108.023 16.1021 108.045 16.1311 108.06 16.1628C108.074 16.1945 108.08 16.2282 108.078 16.2619Z" stroke="#201823" stroke-width="1.03429" mask="url(#path-5-outside-1_77_684)"/>
<path d="M130.576 39.5967C130.625 39.6473 130.648 39.7113 130.64 39.7754C130.632 39.8395 130.594 39.8986 130.533 39.9404C130.473 39.9822 130.394 40.0034 130.315 39.9996C130.235 39.9957 130.161 39.9671 130.107 39.9198L112.729 23.4751V39.7562C112.725 39.82 112.691 39.88 112.633 39.9239C112.576 39.9678 112.5 39.9923 112.421 39.9923C112.342 39.9923 112.266 39.9678 112.209 39.9239C112.151 39.88 112.117 39.82 112.113 39.7562V22.8011C112.113 22.8011 112.113 22.795 112.113 22.7916C112.115 22.7739 112.119 22.7564 112.126 22.7393C112.129 22.7252 112.133 22.7113 112.14 22.6979C112.149 22.685 112.159 22.6728 112.17 22.6612C112.181 22.6462 112.195 22.6323 112.21 22.6198C112.21 22.6198 112.215 22.6137 112.218 22.6124C112.23 22.6061 112.243 22.6004 112.256 22.5954C112.273 22.5851 112.292 22.5765 112.312 22.5696C112.333 22.5645 112.354 22.5611 112.376 22.5594C112.39 22.5562 112.404 22.5539 112.418 22.5526C112.423 22.5526 112.426 22.5526 112.43 22.5526C112.452 22.5537 112.474 22.5571 112.494 22.5628C112.512 22.5653 112.53 22.5692 112.547 22.5744C112.562 22.5809 112.577 22.5889 112.591 22.5981C112.61 22.6074 112.627 22.6184 112.643 22.6307C112.643 22.6307 112.65 22.6348 112.652 22.6368L130.576 39.5967ZM137.5 39.5967C137.549 39.6473 137.572 39.7113 137.565 39.7754C137.557 39.8395 137.518 39.8986 137.458 39.9404C137.397 39.9822 137.319 40.0034 137.239 39.9996C137.16 39.9957 137.085 39.9671 137.031 39.9198L112.186 16.41C112.176 16.3988 112.168 16.3867 112.161 16.374C112.151 16.362 112.142 16.3493 112.135 16.336C112.126 16.316 112.121 16.2952 112.12 16.2742C112.12 16.2654 112.114 16.2579 112.114 16.2484C112.114 16.2389 112.114 16.2444 112.114 16.2416C112.115 16.2199 112.121 16.1984 112.13 16.1778C112.132 16.1675 112.136 16.1573 112.14 16.1473C112.15 16.1312 112.162 16.1162 112.177 16.1025C112.187 16.0903 112.198 16.0787 112.21 16.0679C112.21 16.0679 112.215 16.0618 112.218 16.0597C112.231 16.052 112.246 16.0454 112.261 16.04C112.277 16.0312 112.294 16.0234 112.312 16.017C112.334 16.0121 112.355 16.0087 112.378 16.0068C112.391 16.0039 112.405 16.0016 112.419 16H127.605C130.09 15.9993 132.485 16.7483 134.321 18.1001C136.156 19.4518 137.301 21.3088 137.529 23.3067C137.757 25.3046 137.052 27.2992 135.553 28.8992C134.054 30.4993 131.869 31.5893 129.427 31.9554L137.5 39.5967ZM128.962 31.5196C131.307 31.2502 133.437 30.272 134.923 28.7828C136.409 27.2936 137.14 25.4044 136.968 23.4968C136.796 21.5892 135.733 19.8056 133.995 18.5062C132.257 17.2069 129.974 16.4887 127.605 16.4968H113.087L128.962 31.5196Z" stroke="#201823" stroke-width="1.03429" mask="url(#path-5-outside-1_77_684)"/>
<path d="M166.758 16H141.925C141.84 16.0002 141.759 16.0275 141.699 16.0759C141.639 16.1244 141.605 16.19 141.605 16.2585V25.8736C141.605 25.9101 141.615 25.9461 141.634 25.9792C141.653 26.0122 141.681 26.0414 141.716 26.0647C141.75 26.088 141.791 26.1049 141.835 26.1141C141.879 26.1233 141.924 26.1246 141.969 26.1179C142.041 26.1052 142.106 26.0724 142.152 26.0252C142.198 25.978 142.222 25.9194 142.221 25.8594V16.5069L142.222 16.5033L142.224 16.5002L142.228 16.4981L142.233 16.4974H166.74C166.815 16.4988 166.888 16.4793 166.946 16.4421C167.005 16.405 167.046 16.3526 167.061 16.2938C167.069 16.2579 167.068 16.2211 167.056 16.1858C167.045 16.1506 167.024 16.1178 166.995 16.0898C166.966 16.0618 166.93 16.0393 166.889 16.0237C166.848 16.0082 166.803 16.0001 166.758 16Z" stroke="#201823" stroke-width="1.03429" mask="url(#path-5-outside-1_77_684)"/>
<path d="M166.741 39.5027H142.233C142.23 39.5027 142.227 39.5017 142.225 39.4999C142.222 39.4982 142.221 39.4957 142.221 39.4932V30.3851C142.221 30.3825 142.222 30.3801 142.225 30.3784C142.227 30.3766 142.23 30.3756 142.233 30.3756H159.091C159.176 30.3754 159.257 30.3481 159.317 30.2996C159.377 30.2511 159.411 30.1855 159.411 30.117C159.411 30.0857 159.403 30.0546 159.388 30.0256C159.373 29.9966 159.351 29.9703 159.324 29.9481C159.296 29.9259 159.264 29.9083 159.228 29.8963C159.192 29.8843 159.154 29.8782 159.115 29.8782H141.925C141.883 29.8781 141.842 29.8847 141.803 29.8976C141.764 29.9105 141.729 29.9295 141.699 29.9534C141.669 29.9774 141.646 30.0059 141.63 30.0372C141.613 30.0685 141.605 30.1021 141.605 30.136V39.7416C141.605 39.8102 141.639 39.8759 141.699 39.9244C141.759 39.9729 141.84 40.0001 141.925 40.0001H166.759C166.804 40 166.848 39.9919 166.889 39.9764C166.93 39.9609 166.966 39.9383 166.995 39.9103C167.024 39.8823 167.045 39.8495 167.056 39.8143C167.067 39.779 167.069 39.7422 167.061 39.7063C167.045 39.6476 167.005 39.5952 166.946 39.5581C166.888 39.5209 166.815 39.5014 166.741 39.5027Z" stroke="#201823" stroke-width="1.03429" mask="url(#path-5-outside-1_77_684)"/>
<path d="M187.955 29.1198L175.431 25.508C174.489 25.2115 173.685 24.5879 173.164 23.75C172.642 22.912 172.437 21.9151 172.587 20.9396C172.737 19.964 173.23 19.0741 173.979 18.4309C174.728 17.7877 175.682 17.4337 176.669 17.4328H186.3C187.395 17.4341 188.446 17.8698 189.221 18.6445C189.995 19.4192 190.431 20.4696 190.432 21.5652C190.432 21.7553 190.508 21.9376 190.642 22.072C190.777 22.2065 190.959 22.282 191.149 22.282C191.339 22.282 191.521 22.2065 191.656 22.072C191.79 21.9376 191.866 21.7553 191.866 21.5652C191.864 20.0898 191.277 18.6753 190.234 17.632C189.191 16.5886 187.777 16.0017 186.301 16H176.67C175.338 15.9991 174.05 16.4759 173.04 17.3437C172.029 18.2115 171.364 19.4128 171.164 20.7296C170.964 22.0464 171.242 23.3912 171.949 24.52C172.656 25.6488 173.744 26.4867 175.016 26.8815L187.54 30.4933C188.482 30.7898 189.286 31.4134 189.808 32.2513C190.329 33.0893 190.534 34.0862 190.384 35.0618C190.235 36.0373 189.741 36.9272 188.992 37.5704C188.244 38.2136 187.289 38.5676 186.302 38.5685H176.67C175.575 38.5667 174.525 38.1305 173.75 37.3556C172.976 36.5806 172.541 35.5302 172.54 34.4348C172.54 34.2447 172.465 34.0624 172.33 33.928C172.196 33.7935 172.014 33.718 171.823 33.718C171.633 33.718 171.451 33.7935 171.317 33.928C171.182 34.0624 171.107 34.2447 171.107 34.4348C171.108 35.9102 171.695 37.3247 172.738 38.368C173.781 39.4114 175.196 39.9983 176.671 40H186.302C187.634 40.0009 188.922 39.5241 189.933 38.6563C190.943 37.7885 191.609 36.5872 191.809 35.2704C192.009 33.9536 191.73 32.6088 191.023 31.48C190.316 30.3512 189.228 29.5133 187.956 29.1185L187.955 29.1198Z" stroke="#201823" stroke-width="1.03429" mask="url(#path-5-outside-1_77_684)"/>
<path d="M207.905 17.4325C209.819 17.4327 211.696 17.9523 213.338 18.9359C214.979 19.9194 216.323 21.3299 217.226 23.0171C218.129 24.7043 218.557 26.6049 218.464 28.5163C218.372 30.4276 217.763 32.2781 216.701 33.8703C216.613 34.002 216.57 34.159 216.579 34.3174C216.587 34.4758 216.648 34.6269 216.751 34.7478L216.761 34.7602C216.831 34.8424 216.92 34.9072 217.019 34.9496C217.119 34.9919 217.227 35.0107 217.334 35.0044C217.442 34.9981 217.547 34.9668 217.641 34.9132C217.735 34.8595 217.815 34.7848 217.875 34.695C219.424 32.3843 220.123 29.6078 219.853 26.8393C219.583 24.0707 218.36 21.4817 216.394 19.514C212.758 15.877 207.359 15.0641 202.934 17.0713C202.83 17.1189 202.74 17.1897 202.669 17.2782C202.598 17.3667 202.548 17.4705 202.524 17.5814C202.499 17.6923 202.501 17.8074 202.529 17.9175C202.557 18.0276 202.609 18.1298 202.683 18.216C202.779 18.3293 202.91 18.4081 203.055 18.4403C203.2 18.4725 203.351 18.4565 203.486 18.3947C204.873 17.7598 206.38 17.4316 207.905 17.4325Z" stroke="#201823" stroke-width="1.03429" mask="url(#path-5-outside-1_77_684)"/>
<path d="M200.429 35.4752C196.718 31.7639 196.349 25.9573 199.321 21.8281C199.417 21.6948 199.466 21.5331 199.46 21.3688C199.453 21.2044 199.392 21.0469 199.286 20.9213C199.217 20.8399 199.131 20.7752 199.034 20.732C198.937 20.6888 198.831 20.6683 198.724 20.6719C198.618 20.6756 198.514 20.7033 198.42 20.753C198.326 20.8028 198.244 20.8733 198.181 20.9591C194.781 25.6529 195.192 32.2645 199.416 36.4889C201.197 38.2642 203.49 39.437 205.972 39.8425C208.453 40.248 211 39.8659 213.253 38.7497C213.348 38.7023 213.431 38.634 213.495 38.5499C213.56 38.4658 213.604 38.3682 213.625 38.2644C213.646 38.1605 213.644 38.0533 213.617 37.9507C213.591 37.8481 213.541 37.7528 213.473 37.6721C213.365 37.5452 213.218 37.458 213.055 37.4243C212.892 37.3907 212.722 37.4125 212.573 37.4863C208.624 39.4251 203.708 38.7549 200.429 35.4752Z" stroke="#201823" stroke-width="1.03429" mask="url(#path-5-outside-1_77_684)"/>
<path d="M224.661 40H243.924C244.114 40 244.296 39.9245 244.43 39.7901C244.565 39.6557 244.64 39.4733 244.64 39.2833C244.64 39.0932 244.565 38.9109 244.43 38.7764C244.296 38.642 244.114 38.5665 243.924 38.5665H225.377V16.7167C225.377 16.5267 225.302 16.3443 225.167 16.2099C225.033 16.0755 224.851 16 224.661 16C224.47 16 224.288 16.0755 224.154 16.2099C224.019 16.3443 223.944 16.5267 223.944 16.7167V39.2839C223.944 39.378 223.963 39.4712 223.999 39.5581C224.035 39.6451 224.088 39.724 224.154 39.7905C224.221 39.857 224.3 39.9097 224.387 39.9457C224.474 39.9816 224.567 40.0001 224.661 40Z" stroke="#201823" stroke-width="1.03429" mask="url(#path-5-outside-1_77_684)"/>
</g>
<defs>
<linearGradient id="paint0_linear_77_684" x1="-7.03174" y1="-8.53418" x2="57.6962" y2="73.7556" gradientUnits="userSpaceOnUse">
<stop stop-color="#D382F0"/>
<stop offset="1" stop-color="#2A5EE9"/>
</linearGradient>
<linearGradient id="paint1_linear_77_684" x1="-23.5803" y1="-18.449" x2="41.1476" y2="63.8408" gradientUnits="userSpaceOnUse">
<stop stop-color="#D382F0"/>
<stop offset="1" stop-color="#2A5EE9"/>
</linearGradient>
<clipPath id="clip0_77_684">
<rect width="191.522" height="32" fill="white" transform="translate(53.1187 8)"/>
</clipPath>
</defs>
</svg>
